<svg width="76" height="75" viewBox="0 0 76 75" fill="none" xmlns="http://www.w3.org/2000/svg">
<path d="M37.9434 0C17.3184 0 0.443359 16.875 0.443359 37.5C0.443359 58.125 17.3184 75 37.9434 75C58.5684 75 75.4434 58.125 75.4434 37.5C75.4434 16.875 58.5684 0 37.9434 0ZM37.9434 11.25C44.3184 11.25 49.1934 16.125 49.1934 22.5C49.1934 28.875 44.3184 33.75 37.9434 33.75C31.5684 33.75 26.6934 28.875 26.6934 22.5C26.6934 16.125 31.5684 11.25 37.9434 11.25ZM37.9434 64.5C28.5684 64.5 20.3184 59.6251 15.4434 52.5C15.4434 45 30.4434 40.875 37.9434 40.875C45.4434 40.875 60.4434 45 60.4434 52.5C55.5684 59.625 47.3184 64.5 37.9434 64.5Z" fill="#F2F2F2"/>
</svg>
