<svg width="14" height="14" viewBox="0 0 14 14" fill="none" xmlns="http://www.w3.org/2000/svg">
<path d="M12.8333 1.44243H11.6667V0.961618C11.6667 0.706581 11.5683 0.46199 11.3933 0.281651C11.2183 0.101313 10.9809 0 10.7333 0C10.4858 0 10.2484 0.101313 10.0734 0.281651C9.89833 0.46199 9.8 0.706581 9.8 0.961618V1.44243H7.93333V0.961618C7.93333 0.706581 7.835 0.46199 7.65997 0.281651C7.48493 0.101313 7.24754 0 7 0C6.75246 0 6.51507 0.101313 6.34003 0.281651C6.165 0.46199 6.06667 0.706581 6.06667 0.961618V1.44243H4.2V0.961618C4.2 0.706581 4.10167 0.46199 3.92663 0.281651C3.7516 0.101313 3.5142 0 3.26667 0C3.01913 0 2.78173 0.101313 2.6067 0.281651C2.43167 0.46199 2.33333 0.706581 2.33333 0.961618V1.44243H1.16667C0.857247 1.44243 0.560501 1.56907 0.341709 1.79449C0.122916 2.01991 0 2.32565 0 2.64445V12.2606C0 12.5794 0.122916 12.8852 0.341709 13.1106C0.560501 13.336 0.857247 13.4627 1.16667 13.4627H7.7C7.76188 13.4627 7.82123 13.4373 7.86499 13.3922C7.90875 13.3472 7.93333 13.286 7.93333 13.2222C7.93333 13.1585 7.90875 13.0973 7.86499 13.0523C7.82123 13.0072 7.76188 12.9818 7.7 12.9818H1.16667C0.981185 12.9813 0.803459 12.9051 0.672304 12.77C0.541148 12.6348 0.467221 12.4517 0.466667 12.2606V4.80809H13.5333V8.89497C13.5333 8.95872 13.5579 9.01987 13.6017 9.06496C13.6454 9.11004 13.7048 9.13537 13.7667 9.13537C13.8286 9.13537 13.8879 9.11004 13.9317 9.06496C13.9754 9.01987 14 8.95872 14 8.89497V2.64445C14 2.32565 13.8771 2.01991 13.6583 1.79449C13.4395 1.56907 13.1428 1.44243 12.8333 1.44243ZM10.2667 0.961618C10.2667 0.834099 10.3158 0.711804 10.4033 0.621635C10.4909 0.531465 10.6096 0.480809 10.7333 0.480809C10.8571 0.480809 10.9758 0.531465 11.0633 0.621635C11.1508 0.711804 11.2 0.834099 11.2 0.961618V2.40404C11.2 2.53156 11.1508 2.65386 11.0633 2.74403C10.9758 2.8342 10.8571 2.88485 10.7333 2.88485C10.6096 2.88485 10.4909 2.8342 10.4033 2.74403C10.3158 2.65386 10.2667 2.53156 10.2667 2.40404V0.961618ZM6.53333 0.961618C6.53333 0.834099 6.5825 0.711804 6.67002 0.621635C6.75753 0.531465 6.87623 0.480809 7 0.480809C7.12377 0.480809 7.24247 0.531465 7.32998 0.621635C7.4175 0.711804 7.46667 0.834099 7.46667 0.961618V2.40404C7.46667 2.53156 7.4175 2.65386 7.32998 2.74403C7.24247 2.8342 7.12377 2.88485 7 2.88485C6.87623 2.88485 6.75753 2.8342 6.67002 2.74403C6.5825 2.65386 6.53333 2.53156 6.53333 2.40404V0.961618ZM2.8 0.961618C2.8 0.834099 2.84917 0.711804 2.93668 0.621635C3.0242 0.531465 3.1429 0.480809 3.26667 0.480809C3.39043 0.480809 3.50913 0.531465 3.59665 0.621635C3.68417 0.711804 3.73333 0.834099 3.73333 0.961618V2.40404C3.73333 2.53156 3.68417 2.65386 3.59665 2.74403C3.50913 2.8342 3.39043 2.88485 3.26667 2.88485C3.1429 2.88485 3.0242 2.8342 2.93668 2.74403C2.84917 2.65386 2.8 2.53156 2.8 2.40404V0.961618ZM13.5333 4.32728H0.466667V2.64445C0.467221 2.45335 0.541148 2.27023 0.672304 2.1351C0.803459 1.99997 0.981185 1.92381 1.16667 1.92324H2.33333V2.40404C2.33333 2.65908 2.43167 2.90367 2.6067 3.08401C2.78173 3.26435 3.01913 3.36566 3.26667 3.36566C3.5142 3.36566 3.7516 3.26435 3.92663 3.08401C4.10167 2.90367 4.2 2.65908 4.2 2.40404V1.92324H6.06667V2.40404C6.06667 2.65908 6.165 2.90367 6.34003 3.08401C6.51507 3.26435 6.75246 3.36566 7 3.36566C7.24754 3.36566 7.48493 3.26435 7.65997 3.08401C7.835 2.90367 7.93333 2.65908 7.93333 2.40404V1.92324H9.8V2.40404C9.8 2.65908 9.89833 2.90367 10.0734 3.08401C10.2484 3.26435 10.4858 3.36566 10.7333 3.36566C10.9809 3.36566 11.2183 3.26435 11.3933 3.08401C11.5683 2.90367 11.6667 2.65908 11.6667 2.40404V1.92324H12.8333C13.0188 1.92381 13.1965 1.99997 13.3277 2.1351C13.4589 2.27023 13.5328 2.45335 13.5333 2.64445V4.32728Z" fill="white"/>
<path d="M6.53317 6.06675C6.53317 5.93923 6.484 5.81693 6.39649 5.72676C6.30897 5.63659 6.19027 5.58594 6.0665 5.58594H5.13317C5.0094 5.58594 4.8907 5.63659 4.80319 5.72676C4.71567 5.81693 4.6665 5.93923 4.6665 6.06675V6.78796C4.6665 6.91548 4.71567 7.03777 4.80319 7.12794C4.8907 7.21811 5.0094 7.26877 5.13317 7.26877H6.0665C6.19027 7.26877 6.30897 7.21811 6.39649 7.12794C6.484 7.03777 6.53317 6.91548 6.53317 6.78796V6.06675ZM5.13317 6.78796V6.06675H6.0665V6.78796H5.13317Z" fill="white"/>
<path d="M3.73337 6.06675C3.73337 5.93923 3.6842 5.81693 3.59668 5.72676C3.50917 5.63659 3.39047 5.58594 3.2667 5.58594H2.33337C2.2096 5.58594 2.0909 5.63659 2.00338 5.72676C1.91587 5.81693 1.8667 5.93923 1.8667 6.06675V6.78796C1.8667 6.91548 1.91587 7.03777 2.00338 7.12794C2.0909 7.21811 2.2096 7.26877 2.33337 7.26877H3.2667C3.39047 7.26877 3.50917 7.21811 3.59668 7.12794C3.6842 7.03777 3.73337 6.91548 3.73337 6.78796V6.06675ZM2.33337 6.78796V6.06675H3.2667V6.78796H2.33337Z" fill="white"/>
<path d="M11.6666 7.26877C11.7904 7.26877 11.9091 7.21811 11.9966 7.12794C12.0841 7.03777 12.1333 6.91548 12.1333 6.78796V6.06675C12.1333 5.93923 12.0841 5.81693 11.9966 5.72676C11.9091 5.63659 11.7904 5.58594 11.6666 5.58594H10.7333C10.6095 5.58594 10.4908 5.63659 10.4033 5.72676C10.3158 5.81693 10.2666 5.93923 10.2666 6.06675V6.78796C10.2666 6.91548 10.3158 7.03777 10.4033 7.12794C10.4908 7.21811 10.6095 7.26877 10.7333 7.26877H11.6666ZM10.7333 6.06675H11.6666V6.78796H10.7333V6.06675Z" fill="white"/>
<path d="M6.53317 8.23032C6.53317 8.1028 6.484 7.98051 6.39649 7.89034C6.30897 7.80017 6.19027 7.74951 6.0665 7.74951H5.13317C5.0094 7.74951 4.8907 7.80017 4.80319 7.89034C4.71567 7.98051 4.6665 8.1028 4.6665 8.23032V8.95153C4.6665 9.07905 4.71567 9.20135 4.80319 9.29152C4.8907 9.38169 5.0094 9.43234 5.13317 9.43234H6.0665C6.19027 9.43234 6.30897 9.38169 6.39649 9.29152C6.484 9.20135 6.53317 9.07905 6.53317 8.95153V8.23032ZM5.13317 8.95153V8.23032H6.0665V8.95153H5.13317Z" fill="white"/>
<path d="M3.73337 8.23032C3.73337 8.1028 3.6842 7.98051 3.59668 7.89034C3.50917 7.80017 3.39047 7.74951 3.2667 7.74951H2.33337C2.2096 7.74951 2.0909 7.80017 2.00338 7.89034C1.91587 7.98051 1.8667 8.1028 1.8667 8.23032V8.95153C1.8667 9.07905 1.91587 9.20135 2.00338 9.29152C2.0909 9.38169 2.2096 9.43234 2.33337 9.43234H3.2667C3.39047 9.43234 3.50917 9.38169 3.59668 9.29152C3.6842 9.20135 3.73337 9.07905 3.73337 8.95153V8.23032ZM2.33337 8.95153V8.23032H3.2667V8.95153H2.33337Z" fill="white"/>
<path d="M6.0665 9.91357H5.13317C5.0094 9.91357 4.8907 9.96423 4.80319 10.0544C4.71567 10.1446 4.6665 10.2669 4.6665 10.3944V11.1156C4.6665 11.2431 4.71567 11.3654 4.80319 11.4556C4.8907 11.5457 5.0094 11.5964 5.13317 11.5964H6.0665C6.19027 11.5964 6.30897 11.5457 6.39649 11.4556C6.484 11.3654 6.53317 11.2431 6.53317 11.1156V10.3944C6.53317 10.2669 6.484 10.1446 6.39649 10.0544C6.30897 9.96423 6.19027 9.91357 6.0665 9.91357ZM5.13317 11.1156V10.3944H6.0665V11.1156H5.13317Z" fill="white"/>
<path d="M7.93346 7.26877H8.8668C8.99056 7.26877 9.10926 7.21811 9.19678 7.12794C9.2843 7.03777 9.33346 6.91548 9.33346 6.78796V6.06675C9.33346 5.93923 9.2843 5.81693 9.19678 5.72676C9.10926 5.63659 8.99056 5.58594 8.8668 5.58594H7.93346C7.8097 5.58594 7.691 5.63659 7.60348 5.72676C7.51596 5.81693 7.4668 5.93923 7.4668 6.06675V6.78796C7.4668 6.91548 7.51596 7.03777 7.60348 7.12794C7.691 7.21811 7.8097 7.26877 7.93346 7.26877ZM7.93346 6.06675H8.8668V6.78796H7.93346V6.06675Z" fill="white"/>
<path d="M7.4668 8.95153C7.4668 9.07905 7.51596 9.20135 7.60348 9.29152C7.691 9.38169 7.8097 9.43234 7.93346 9.43234C7.99535 9.43234 8.0547 9.40701 8.09846 9.36193C8.14221 9.31685 8.1668 9.2557 8.1668 9.19194C8.1668 9.12818 8.14221 9.06703 8.09846 9.02195C8.0547 8.97686 7.99535 8.95153 7.93346 8.95153V8.23032H8.8668C8.92868 8.23032 8.98803 8.20499 9.03179 8.15991C9.07555 8.11482 9.10013 8.05368 9.10013 7.98992C9.10013 7.92616 9.07555 7.86501 9.03179 7.81992C8.98803 7.77484 8.92868 7.74951 8.8668 7.74951H7.93346C7.8097 7.74951 7.691 7.80017 7.60348 7.89034C7.51596 7.98051 7.4668 8.1028 7.4668 8.23032V8.95153Z" fill="white"/>
<path d="M3.2667 9.91357H2.33337C2.2096 9.91357 2.0909 9.96423 2.00338 10.0544C1.91587 10.1446 1.8667 10.2669 1.8667 10.3944V11.1156C1.8667 11.2431 1.91587 11.3654 2.00338 11.4556C2.0909 11.5457 2.2096 11.5964 2.33337 11.5964H3.2667C3.39047 11.5964 3.50917 11.5457 3.59668 11.4556C3.6842 11.3654 3.73337 11.2431 3.73337 11.1156V10.3944C3.73337 10.2669 3.6842 10.1446 3.59668 10.0544C3.50917 9.96423 3.39047 9.91357 3.2667 9.91357ZM2.33337 11.1156V10.3944H3.2667V11.1156H2.33337Z" fill="white"/>
<path d="M10.9664 7.74951C10.3665 7.74951 9.78004 7.9328 9.28121 8.27621C8.78238 8.61962 8.39359 9.10772 8.16401 9.67879C7.93442 10.2499 7.87435 10.8782 7.99139 11.4845C8.10843 12.0907 8.39733 12.6476 8.82155 13.0847C9.24577 13.5217 9.78626 13.8194 10.3747 13.94C10.9631 14.0606 11.573 13.9987 12.1272 13.7621C12.6815 13.5256 13.1553 13.125 13.4886 12.6111C13.8219 12.0971 13.9998 11.4929 13.9998 10.8748C13.9988 10.0462 13.679 9.25183 13.1103 8.66593C12.5416 8.08004 11.7706 7.75047 10.9664 7.74951ZM10.9664 13.5192C10.4588 13.5192 9.96256 13.3641 9.54048 13.0735C9.11839 12.783 8.78941 12.37 8.59515 11.8868C8.40088 11.4035 8.35006 10.8718 8.44909 10.3589C8.54813 9.84589 8.79258 9.37469 9.15153 9.00486C9.51049 8.63503 9.96782 8.38317 10.4657 8.28113C10.9636 8.1791 11.4797 8.23147 11.9487 8.43162C12.4177 8.63177 12.8185 8.97072 13.1005 9.40559C13.3826 9.84047 13.5331 10.3517 13.5331 10.8748C13.5323 11.5759 13.2616 12.248 12.7805 12.7438C12.2993 13.2395 11.6469 13.5184 10.9664 13.5192Z" fill="white"/>
<path d="M12.3149 9.8668L10.5001 11.7367L9.67522 10.8866C9.63121 10.8428 9.57227 10.8186 9.51109 10.8191C9.44991 10.8197 9.39139 10.845 9.34813 10.8895C9.30487 10.9341 9.28033 10.9944 9.27979 11.0574C9.27926 11.1205 9.30278 11.1812 9.34528 11.2265L10.3351 12.2466C10.3788 12.2916 10.4382 12.317 10.5001 12.317C10.5619 12.317 10.6213 12.2916 10.665 12.2466L12.6449 10.2067C12.6874 10.1614 12.7109 10.1007 12.7103 10.0376C12.7098 9.9746 12.6853 9.9143 12.642 9.86973C12.5987 9.82516 12.5402 9.79987 12.479 9.79933C12.4179 9.79878 12.3589 9.82301 12.3149 9.8668Z" fill="white"/>
</svg>
