<svg width="30" height="29" viewBox="0 0 30 29" fill="none" xmlns="http://www.w3.org/2000/svg">
<g clip-path="url(#clip0_165_254)">
<path d="M0.303555 11.7812C0.303555 12.5074 0.593475 13.1841 1.0932 13.6831C0.526724 14.3006 0.238052 15.1283 0.316916 15.9898C0.458834 17.5256 1.84772 18.7291 3.48035 18.7291H10.9729C10.6017 19.8517 10.0074 21.9094 10.0074 23.5624C10.0074 26.1833 12.2429 28.3958 13.6463 28.3958C14.9054 28.3958 15.8067 27.6889 15.8443 27.6599C15.9886 27.5451 16.0723 27.3711 16.0723 27.1874V23.09L19.5669 15.5512L19.7112 15.4775V15.7083C19.7112 16.0418 19.983 16.3125 20.3178 16.3125H26.3826C28.0553 16.3124 29.415 14.9579 29.415 13.2916L29.415 3.62494C29.415 1.95863 28.0553 0.604126 26.3826 0.604126L22.7437 0.604126C21.4325 0.604126 20.3117 1.43788 19.8896 2.6015C18.8803 2.08432 17.5218 1.81244 16.6788 1.81244L5.54482 1.81244C4.22388 1.81244 3.06789 2.69938 2.79622 3.92219C2.65675 4.55294 2.738 5.18731 3.01456 5.73832C2.11938 6.18663 1.51651 7.10856 1.51651 8.15619C1.51651 8.58394 1.61477 8.99356 1.80035 9.36332C0.905174 9.81281 0.303555 10.7336 0.303555 11.7812ZM2.86173 10.2901C3.09581 10.2623 3.29357 10.1041 3.36873 9.8805C3.44271 9.65694 3.38084 9.41169 3.20862 9.24975C2.9005 8.96094 2.72947 8.57187 2.72947 8.15619C2.72947 7.39375 3.30807 6.75331 4.07343 6.66512C4.30752 6.63731 4.50527 6.47906 4.58044 6.2555C4.65441 6.03194 4.59255 5.78669 4.42033 5.62475C4.02124 5.25019 3.86113 4.72456 3.98121 4.18319C4.13041 3.50894 4.78786 3.02076 5.54476 3.02076L16.6788 3.02076C17.6637 3.02076 19.3158 3.48113 19.8883 4.05269C20.0618 4.22425 20.3238 4.275 20.5494 4.18319C20.7762 4.09013 20.9242 3.86901 20.9242 3.62494C20.9242 2.62563 21.7405 1.81244 22.7437 1.81244L26.3826 1.81244C27.3858 1.81244 28.2021 2.62563 28.2021 3.62494L28.2021 13.2916C28.2021 14.2909 27.3858 15.1041 26.3826 15.1041L20.9242 15.1041V14.4999C20.9242 14.2909 20.815 14.0964 20.6355 13.9852C20.4584 13.8789 20.2353 13.868 20.046 13.9598L18.8331 14.564C18.7105 14.6244 18.6123 14.7259 18.5541 14.8504L14.9151 22.7046C14.8787 22.7843 14.8594 22.8713 14.8594 22.9583L14.8594 26.86C14.607 26.9989 14.1691 27.1874 13.6463 27.1874C12.9816 27.1874 11.2204 25.5417 11.2204 23.5624C11.2204 21.4358 12.3824 18.3702 12.3933 18.34C12.4636 18.1551 12.4394 17.9461 12.3266 17.7818C12.2126 17.6186 12.0258 17.5208 11.8269 17.5208H3.48035C2.46872 17.5208 1.60993 16.7994 1.52504 15.8786C1.46074 15.1899 1.79313 14.5349 2.38866 14.1688C2.57425 14.0553 2.68461 13.8498 2.67614 13.6311C2.66767 13.4124 2.5415 13.2167 2.34744 13.1164C1.83435 12.8566 1.51657 12.3443 1.51657 11.7812C1.51652 11.0187 2.0951 10.3783 2.86173 10.2901Z" fill="white"/>
<path d="M20.3178 15.1042C20.6526 15.1042 20.9243 14.8336 20.9243 14.5001L20.9243 3.62506C20.9243 3.29156 20.6526 3.02087 20.3178 3.02087C19.983 3.02087 19.7113 3.29156 19.7113 3.62506L19.7113 14.5001C19.7113 14.8336 19.983 15.1042 20.3178 15.1042Z" fill="white"/>
</g>
<defs>
<clipPath id="clip0_165_254">
<rect width="29.1115" height="29" fill="white" transform="translate(29.415 29) rotate(-180)"/>
</clipPath>
</defs>
</svg>
