<svg width="29" height="33" viewBox="0 0 29 33" fill="none" xmlns="http://www.w3.org/2000/svg">
<g clip-path="url(#clip0_165_280)">
<path d="M28.9069 19.7234C28.9069 18.9285 28.619 18.1877 28.1228 17.6414C28.6853 16.9655 28.9719 16.0594 28.8936 15.1164C28.7527 13.4351 27.3736 12.1177 25.7524 12.1177H18.3125C18.6811 10.8889 19.2713 8.63629 19.2713 6.82679C19.2713 3.95779 17.0515 1.53589 15.6579 1.53589C14.4077 1.53589 13.5127 2.30969 13.4754 2.34143C13.3321 2.46711 13.249 2.65759 13.249 2.8586V7.34396L9.77895 15.5965L9.6356 15.6772V15.4245C9.6356 15.0594 9.36578 14.7631 9.03335 14.7631H3.01112C1.35021 14.7632 0 16.246 0 18.07V28.6519C0 30.4759 1.35021 31.9587 3.01112 31.9587H6.62448C7.92648 31.9587 9.03939 31.046 9.45854 29.7722C10.4607 30.3383 11.8097 30.636 12.6468 30.636H23.7025C25.0141 30.636 26.162 29.6651 26.4318 28.3265C26.5702 27.636 26.4896 26.9416 26.215 26.3384C27.1038 25.8477 27.7025 24.8384 27.7025 23.6916C27.7025 23.2234 27.6049 22.775 27.4206 22.3702C28.3095 21.8782 28.9069 20.8702 28.9069 19.7234ZM26.3667 21.3557C26.1343 21.3861 25.9379 21.5593 25.8633 21.8041C25.7898 22.0488 25.8512 22.3173 26.0223 22.4945C26.3282 22.8107 26.498 23.2366 26.498 23.6916C26.498 24.5262 25.9235 25.2273 25.1635 25.3239C24.9311 25.3543 24.7347 25.5275 24.6601 25.7723C24.5866 26.017 24.6481 26.2855 24.8191 26.4627C25.2153 26.8727 25.3743 27.4481 25.2551 28.0408C25.1069 28.7788 24.4541 29.3133 23.7025 29.3133H12.6468C11.6687 29.3133 10.0283 28.8093 9.45979 28.1836C9.28753 27.9958 9.02737 27.9403 8.80334 28.0408C8.57812 28.1426 8.43116 28.3847 8.43116 28.6519C8.43116 29.7458 7.62058 30.636 6.62448 30.636H3.01112C2.01501 30.636 1.20444 29.7458 1.20444 28.6519V18.07C1.20444 16.9761 2.01501 16.0859 3.01112 16.0859H8.43116V16.7473C8.43116 16.9761 8.53956 17.1891 8.7178 17.3108C8.89367 17.4271 9.11527 17.4391 9.30317 17.3385L10.5076 16.6772C10.6293 16.611 10.7268 16.4999 10.7846 16.3637L14.398 7.76589C14.4341 7.67859 14.4534 7.58336 14.4534 7.48812V3.21704C14.704 3.06495 15.1388 2.8586 15.6579 2.8586C16.3179 2.8586 18.0668 4.66016 18.0668 6.82679C18.0668 9.15482 16.913 12.5106 16.9021 12.5437C16.8323 12.746 16.8563 12.9749 16.9684 13.1548C17.0816 13.3333 17.2671 13.4405 17.4646 13.4405H25.7524C26.757 13.4405 27.6097 14.2301 27.694 15.2381C27.7579 15.992 27.4278 16.709 26.8364 17.1098C26.6522 17.2341 26.5426 17.459 26.551 17.6983C26.5594 17.9377 26.6847 18.152 26.8774 18.2618C27.3869 18.5462 27.7024 19.1071 27.7024 19.7234C27.7025 20.5581 27.1279 21.2591 26.3667 21.3557Z" fill="white"/>
<path d="M9.0334 15.4775C8.70097 15.4775 8.43115 15.7739 8.43115 16.1389V28.0435C8.43115 28.4086 8.70097 28.7049 9.0334 28.7049C9.36583 28.7049 9.63564 28.4086 9.63564 28.0435V16.1389C9.63564 15.7739 9.36583 15.4775 9.0334 15.4775Z" fill="white"/>
</g>
<defs>
<clipPath id="clip0_165_280">
<rect width="28.9069" height="31.7456" fill="white" transform="translate(0 0.266113)"/>
</clipPath>
</defs>
</svg>
