<svg width="28" height="34" viewBox="0 0 28 34" fill="none" xmlns="http://www.w3.org/2000/svg">
<path d="M1.05176 29.6294V31.1646H3.35449V31.6274H1.05176V33.3003H0.492188V29.1724H3.4248V29.6294H1.05176ZM4.88086 33.3589C4.5625 33.3589 4.32324 33.2749 4.16309 33.1069C4.00293 32.939 3.92285 32.7085 3.92285 32.4155C3.92285 32.0874 4.03027 31.8354 4.24512 31.6597C4.46191 31.4839 4.81055 31.3901 5.29102 31.3784L6.00293 31.3667V31.1938C6.00293 30.936 5.94824 30.7515 5.83887 30.6401C5.72949 30.5288 5.55762 30.4731 5.32324 30.4731C5.08691 30.4731 4.91504 30.5132 4.80762 30.5933C4.7002 30.6733 4.63574 30.8013 4.61426 30.9771L4.06348 30.9272C4.15332 30.3569 4.57715 30.0718 5.33496 30.0718C5.7334 30.0718 6.0332 30.1636 6.23438 30.3472C6.43555 30.5288 6.53613 30.7925 6.53613 31.1382V32.5034C6.53613 32.6597 6.55664 32.7778 6.59766 32.8579C6.63867 32.936 6.7168 32.9751 6.83203 32.9751C6.88281 32.9751 6.94043 32.9683 7.00488 32.9546V33.2827C6.87207 33.314 6.73633 33.3296 6.59766 33.3296C6.40234 33.3296 6.25977 33.2788 6.16992 33.1772C6.08203 33.0737 6.03223 32.9126 6.02051 32.6938H6.00293C5.86816 32.936 5.71094 33.1079 5.53125 33.2095C5.35352 33.3091 5.13672 33.3589 4.88086 33.3589ZM5.00098 32.9634C5.19434 32.9634 5.36621 32.9194 5.5166 32.8315C5.66699 32.7437 5.78516 32.6235 5.87109 32.4712C5.95898 32.3169 6.00293 32.1587 6.00293 31.9966V31.7358L5.42578 31.7476C5.17773 31.7515 4.98926 31.7769 4.86035 31.8237C4.7334 31.8706 4.63574 31.9429 4.56738 32.0405C4.49902 32.1382 4.46484 32.2661 4.46484 32.4243C4.46484 32.5962 4.51074 32.729 4.60254 32.8228C4.69629 32.9165 4.8291 32.9634 5.00098 32.9634ZM7.81348 31.7007C7.81348 32.1226 7.87988 32.4351 8.0127 32.6382C8.14551 32.8413 8.3457 32.9429 8.61328 32.9429C8.80078 32.9429 8.95703 32.8921 9.08203 32.7905C9.20898 32.689 9.28711 32.5327 9.31641 32.3218L9.84961 32.3569C9.80859 32.6616 9.67871 32.9048 9.45996 33.0864C9.24121 33.2681 8.96387 33.3589 8.62793 33.3589C8.18457 33.3589 7.8457 33.2192 7.61133 32.9399C7.37891 32.6587 7.2627 32.2495 7.2627 31.7124C7.2627 31.1792 7.37988 30.7729 7.61426 30.4937C7.84863 30.2124 8.18457 30.0718 8.62207 30.0718C8.94629 30.0718 9.21484 30.1558 9.42773 30.3237C9.64258 30.4917 9.77734 30.7231 9.83203 31.0181L9.29004 31.0591C9.2627 30.8833 9.19336 30.7437 9.08203 30.6401C8.9707 30.5366 8.8125 30.4849 8.60742 30.4849C8.32812 30.4849 8.12598 30.5776 8.00098 30.7632C7.87598 30.9487 7.81348 31.2612 7.81348 31.7007ZM10.8164 31.8267C10.8164 32.1899 10.8916 32.4702 11.042 32.6675C11.1924 32.8647 11.4121 32.9634 11.7012 32.9634C11.9297 32.9634 12.1123 32.9175 12.249 32.8257C12.3877 32.7339 12.4814 32.6177 12.5303 32.4771L12.9932 32.6089C12.8037 33.1089 12.373 33.3589 11.7012 33.3589C11.2324 33.3589 10.875 33.2192 10.6289 32.9399C10.3848 32.6606 10.2627 32.2456 10.2627 31.6948C10.2627 31.1714 10.3848 30.77 10.6289 30.4907C10.875 30.2114 11.2256 30.0718 11.6807 30.0718C12.6123 30.0718 13.0781 30.6333 13.0781 31.7563V31.8267H10.8164ZM12.5332 31.4224C12.5039 31.0884 12.4189 30.8452 12.2783 30.6929C12.1377 30.5386 11.9355 30.4614 11.6719 30.4614C11.416 30.4614 11.2129 30.5474 11.0625 30.7192C10.9141 30.8892 10.834 31.1235 10.8223 31.4224H12.5332ZM16.4326 31.7007C16.4326 32.8062 16.0439 33.3589 15.2666 33.3589C15.0264 33.3589 14.8262 33.3159 14.666 33.23C14.5078 33.1421 14.3789 33.0015 14.2793 32.8081H14.2734C14.2734 32.8687 14.2695 32.9614 14.2617 33.0864C14.2539 33.2095 14.248 33.2808 14.2441 33.3003H13.7344C13.7461 33.1948 13.752 32.9771 13.752 32.647V28.9526H14.2793V30.1919C14.2793 30.3188 14.2754 30.4683 14.2676 30.6401H14.2793C14.377 30.437 14.5059 30.2915 14.666 30.2036C14.8281 30.1157 15.0283 30.0718 15.2666 30.0718C15.667 30.0718 15.9609 30.2065 16.1484 30.4761C16.3379 30.7456 16.4326 31.1538 16.4326 31.7007ZM15.8789 31.7183C15.8789 31.2749 15.8203 30.9575 15.7031 30.7661C15.5859 30.5747 15.3955 30.479 15.1318 30.479C14.835 30.479 14.6182 30.5806 14.4814 30.7837C14.3467 30.9868 14.2793 31.3091 14.2793 31.7505C14.2793 32.1665 14.3457 32.4741 14.4785 32.6733C14.6113 32.8706 14.8271 32.9692 15.126 32.9692C15.3916 32.9692 15.583 32.8716 15.7002 32.6763C15.8193 32.479 15.8789 32.1597 15.8789 31.7183ZM19.7725 31.7124C19.7725 32.2671 19.6504 32.6802 19.4062 32.9517C19.1621 33.2231 18.8076 33.3589 18.3428 33.3589C17.8799 33.3589 17.5303 33.2183 17.2939 32.937C17.0576 32.6538 16.9395 32.2456 16.9395 31.7124C16.9395 30.6187 17.4131 30.0718 18.3604 30.0718C18.8447 30.0718 19.2012 30.2056 19.4297 30.4731C19.6582 30.7388 19.7725 31.1519 19.7725 31.7124ZM19.2188 31.7124C19.2188 31.2749 19.1533 30.9575 19.0225 30.7603C18.8936 30.561 18.6758 30.4614 18.3691 30.4614C18.0605 30.4614 17.8369 30.563 17.6982 30.7661C17.5615 30.9673 17.4932 31.2827 17.4932 31.7124C17.4932 32.1304 17.5605 32.4448 17.6953 32.6558C17.832 32.8647 18.0459 32.9692 18.3369 32.9692C18.6533 32.9692 18.8789 32.8677 19.0137 32.6646C19.1504 32.4614 19.2188 32.144 19.2188 31.7124ZM23.1123 31.7124C23.1123 32.2671 22.9902 32.6802 22.7461 32.9517C22.502 33.2231 22.1475 33.3589 21.6826 33.3589C21.2197 33.3589 20.8701 33.2183 20.6338 32.937C20.3975 32.6538 20.2793 32.2456 20.2793 31.7124C20.2793 30.6187 20.7529 30.0718 21.7002 30.0718C22.1846 30.0718 22.541 30.2056 22.7695 30.4731C22.998 30.7388 23.1123 31.1519 23.1123 31.7124ZM22.5586 31.7124C22.5586 31.2749 22.4932 30.9575 22.3623 30.7603C22.2334 30.561 22.0156 30.4614 21.709 30.4614C21.4004 30.4614 21.1768 30.563 21.0381 30.7661C20.9014 30.9673 20.833 31.2827 20.833 31.7124C20.833 32.1304 20.9004 32.4448 21.0352 32.6558C21.1719 32.8647 21.3857 32.9692 21.6768 32.9692C21.9932 32.9692 22.2188 32.8677 22.3535 32.6646C22.4902 32.4614 22.5586 32.144 22.5586 31.7124ZM25.7578 33.3003L24.6855 31.853L24.2988 32.1724V33.3003H23.7715V28.9526H24.2988V31.6685L25.6904 30.1304H26.3086L25.0225 31.4927L26.376 33.3003H25.7578Z" fill="white"/>
<path d="M16.2653 27.1003H12.0331C11.3262 27.1003 10.7511 26.5128 10.7511 25.7906V16.0381H8.28196C7.57505 16.0381 7 15.4504 7 14.7284V10.5494C7 9.82716 7.57505 9.23966 8.28196 9.23966H10.7511V7.14697C10.7511 5.072 11.3889 3.30663 12.5952 2.04204C13.807 0.771675 15.5005 0.100342 17.4926 0.100342L20.7203 0.105698C21.426 0.106934 22 0.694427 22 1.41541V5.2955C22 6.01772 21.4252 6.60521 20.7184 6.60521L18.5453 6.60603C17.8825 6.60603 17.7138 6.74178 17.6777 6.78339C17.6182 6.8524 17.5474 7.04748 17.5474 7.58615V9.23946H20.5551C20.7816 9.23946 21.0009 9.29652 21.1895 9.40405C21.5961 9.6362 21.849 10.0752 21.849 10.5496L21.8474 14.7286C21.8474 15.4504 21.2723 16.0379 20.5654 16.0379H17.5474V25.7906C17.5474 26.5128 16.9722 27.1003 16.2653 27.1003ZM12.3004 25.5175H15.9979V15.3295C15.9979 14.8472 16.382 14.455 16.8538 14.455H20.298L20.2995 10.8225H16.8536C16.3818 10.8225 15.9979 10.4303 15.9979 9.94807V7.58615C15.9979 6.96776 16.0594 6.2645 16.5163 5.73592C17.0684 5.09692 17.9384 5.02318 18.5449 5.02318L20.4507 5.02235V1.68814L17.4914 1.6832C14.2899 1.6832 12.3004 3.77692 12.3004 7.14697V9.94807C12.3004 10.4301 11.9165 10.8225 11.4447 10.8225H8.54932V14.455H11.4447C11.9165 14.455 12.3004 14.8472 12.3004 15.3295V25.5175ZM20.7172 1.68855H20.7174H20.7172Z" fill="white"/>
</svg>
