<svg width="31" height="38" viewBox="0 0 31 38" fill="none" xmlns="http://www.w3.org/2000/svg">
<path d="M21.8915 0.0942317C19.0395 -0.0345161 11.9753 -0.0282662 9.12075 0.0942317C6.61234 0.20798 4.39971 0.794219 2.61592 2.52044C-0.365248 5.40539 0.0157936 9.29282 0.0157936 14.994C0.0157936 20.8289 -0.32004 24.6263 2.61592 27.4675C5.60871 30.3625 9.68392 29.9837 15.5055 29.9837C21.4781 29.9837 23.5396 29.9875 25.6515 29.1962C28.5229 28.1175 30.6903 25.6338 30.9021 21.1726C31.0365 18.4114 31.0287 11.5765 30.9021 8.81408C30.6464 3.54792 27.7259 0.354227 21.8915 0.0942317ZM26.4058 25.5588C24.4515 27.45 21.7403 27.2813 15.468 27.2813C9.00967 27.2813 6.41988 27.3738 4.53017 25.54C2.35371 23.4438 2.74767 20.0776 2.74767 14.974C2.74767 8.06784 2.01529 3.09418 9.17759 2.73919C10.8232 2.68294 11.3075 2.66419 15.4499 2.66419L15.508 2.70169C22.3913 2.70169 27.7918 2.0042 28.116 8.93408C28.1896 10.5153 28.2064 10.9903 28.2064 14.9927C28.2051 21.1701 28.3266 23.6913 26.4058 25.5588Z" fill="#FAF8FF"/>
<path d="M15.5 7C11.3554 7 8 10.359 8 14.5C8 18.6446 11.359 22 15.5 22C19.6446 22 23 18.641 23 14.5C23 10.3554 19.641 7 15.5 7ZM15.5 19.3681C12.8096 19.3681 10.6319 17.1892 10.6319 14.5C10.6319 11.8108 12.8108 9.63194 15.5 9.63194C18.1892 9.63194 20.3681 11.8108 20.3681 14.5C20.3693 17.1892 18.1904 19.3681 15.5 19.3681Z" fill="#FAF8FF"/>
<path d="M2.55371 36.1004V31.9724H3.11328V36.1004H2.55371ZM6.08691 36.1004V34.0906C6.08691 33.8816 6.06641 33.7195 6.02539 33.6043C5.98438 33.489 5.91895 33.406 5.8291 33.3553C5.73926 33.3045 5.60742 33.2791 5.43359 33.2791C5.17969 33.2791 4.97949 33.366 4.83301 33.5398C4.68652 33.7137 4.61328 33.9549 4.61328 34.2635V36.1004H4.08594V33.6072C4.08594 33.2381 4.08008 33.0125 4.06836 32.9305H4.56641C4.56836 32.9402 4.57031 32.9666 4.57227 33.0096C4.57422 33.0525 4.57617 33.1023 4.57812 33.159C4.58203 33.2137 4.58594 33.3181 4.58984 33.4724H4.59863C4.71973 33.2537 4.85938 33.0994 5.01758 33.0096C5.17773 32.9178 5.37598 32.8719 5.6123 32.8719C5.95996 32.8719 6.21387 32.9588 6.37402 33.1326C6.53613 33.3045 6.61719 33.5896 6.61719 33.9881V36.1004H6.08691ZM9.79297 35.2244C9.79297 35.5232 9.67969 35.7537 9.45312 35.9158C9.22852 36.0779 8.91309 36.159 8.50684 36.159C8.1123 36.159 7.80762 36.0945 7.59277 35.9656C7.37988 35.8347 7.24121 35.6316 7.17676 35.3562L7.64258 35.2654C7.6875 35.4353 7.78027 35.5603 7.9209 35.6404C8.06152 35.7185 8.25684 35.7576 8.50684 35.7576C8.77441 35.7576 8.96973 35.7166 9.09277 35.6346C9.21777 35.5525 9.28027 35.4295 9.28027 35.2654C9.28027 35.1404 9.2373 35.0388 9.15137 34.9607C9.06543 34.8826 8.92676 34.8181 8.73535 34.7674L8.35742 34.6678C8.05469 34.5896 7.83887 34.5135 7.70996 34.4392C7.58301 34.3631 7.4834 34.2713 7.41113 34.1638C7.33887 34.0564 7.30273 33.9246 7.30273 33.7683C7.30273 33.4793 7.40527 33.2596 7.61035 33.1092C7.81738 32.9568 8.11816 32.8806 8.5127 32.8806C8.8623 32.8806 9.13965 32.9422 9.34473 33.0652C9.55176 33.1883 9.68262 33.3855 9.7373 33.657L9.2627 33.7156C9.2334 33.575 9.1543 33.4676 9.02539 33.3933C8.89844 33.3172 8.72754 33.2791 8.5127 33.2791C8.27441 33.2791 8.09863 33.3152 7.98535 33.3875C7.87207 33.4597 7.81543 33.5691 7.81543 33.7156C7.81543 33.8055 7.83887 33.8797 7.88574 33.9383C7.93262 33.9969 8.00195 34.0467 8.09375 34.0877C8.18555 34.1287 8.37891 34.1853 8.67383 34.2576C8.95312 34.3279 9.1543 34.3933 9.27734 34.4539C9.40039 34.5125 9.49707 34.5779 9.56738 34.6502C9.63965 34.7224 9.69531 34.8064 9.73438 34.9021C9.77344 34.9959 9.79297 35.1033 9.79297 35.2244ZM11.6328 36.0769C11.459 36.1238 11.2812 36.1472 11.0996 36.1472C10.6777 36.1472 10.4668 35.908 10.4668 35.4295V33.3142H10.1006V32.9305H10.4873L10.6426 32.2215H10.9941V32.9305H11.5801V33.3142H10.9941V35.3152C10.9941 35.4676 11.0186 35.575 11.0674 35.6375C11.1182 35.698 11.2051 35.7283 11.3281 35.7283C11.3984 35.7283 11.5 35.7146 11.6328 35.6873V36.0769ZM12.8926 36.159C12.5742 36.159 12.335 36.075 12.1748 35.907C12.0146 35.739 11.9346 35.5086 11.9346 35.2156C11.9346 34.8875 12.042 34.6355 12.2568 34.4597C12.4736 34.284 12.8223 34.1902 13.3027 34.1785L14.0146 34.1668V33.9939C14.0146 33.7361 13.96 33.5515 13.8506 33.4402C13.7412 33.3289 13.5693 33.2732 13.335 33.2732C13.0986 33.2732 12.9268 33.3133 12.8193 33.3933C12.7119 33.4734 12.6475 33.6013 12.626 33.7771L12.0752 33.7273C12.165 33.157 12.5889 32.8719 13.3467 32.8719C13.7451 32.8719 14.0449 32.9637 14.2461 33.1472C14.4473 33.3289 14.5479 33.5926 14.5479 33.9383V35.3035C14.5479 35.4597 14.5684 35.5779 14.6094 35.658C14.6504 35.7361 14.7285 35.7752 14.8438 35.7752C14.8945 35.7752 14.9521 35.7683 15.0166 35.7547V36.0828C14.8838 36.114 14.748 36.1297 14.6094 36.1297C14.4141 36.1297 14.2715 36.0789 14.1816 35.9773C14.0938 35.8738 14.0439 35.7127 14.0322 35.4939H14.0146C13.8799 35.7361 13.7227 35.908 13.543 36.0096C13.3652 36.1092 13.1484 36.159 12.8926 36.159ZM13.0127 35.7635C13.2061 35.7635 13.3779 35.7195 13.5283 35.6316C13.6787 35.5437 13.7969 35.4236 13.8828 35.2713C13.9707 35.117 14.0146 34.9588 14.0146 34.7967V34.5359L13.4375 34.5476C13.1895 34.5515 13.001 34.5769 12.8721 34.6238C12.7451 34.6707 12.6475 34.743 12.5791 34.8406C12.5107 34.9383 12.4766 35.0662 12.4766 35.2244C12.4766 35.3963 12.5225 35.5291 12.6143 35.6228C12.708 35.7166 12.8408 35.7635 13.0127 35.7635ZM16.625 37.3455C16.2793 37.3455 16.0039 37.2771 15.7988 37.1404C15.5938 37.0056 15.4619 36.8133 15.4033 36.5633L15.9336 36.4871C15.9688 36.6336 16.0459 36.7459 16.165 36.824C16.2861 36.9041 16.4443 36.9441 16.6396 36.9441C17.165 36.9441 17.4277 36.6365 17.4277 36.0213V35.5115H17.4219C17.3223 35.7146 17.1855 35.868 17.0117 35.9715C16.8379 36.073 16.6348 36.1238 16.4023 36.1238C16.0137 36.1238 15.7275 35.9949 15.5439 35.7371C15.3623 35.4793 15.2715 35.074 15.2715 34.5213C15.2715 33.9607 15.3691 33.5476 15.5645 33.282C15.7617 33.0144 16.0605 32.8806 16.4609 32.8806C16.6855 32.8806 16.8799 32.9324 17.0439 33.0359C17.21 33.1375 17.3379 33.283 17.4277 33.4724H17.4336C17.4336 33.4138 17.4375 33.3123 17.4453 33.1678C17.4531 33.0232 17.4609 32.9441 17.4688 32.9305H17.9697C17.958 33.0359 17.9521 33.2547 17.9521 33.5867V36.0096C17.9521 36.9002 17.5098 37.3455 16.625 37.3455ZM17.4277 34.5154C17.4277 34.2576 17.3926 34.0359 17.3223 33.8504C17.252 33.6629 17.1523 33.5203 17.0234 33.4226C16.8965 33.323 16.752 33.2732 16.5898 33.2732C16.3203 33.2732 16.124 33.3709 16.001 33.5662C15.8779 33.7615 15.8164 34.0779 15.8164 34.5154C15.8164 34.949 15.874 35.2605 15.9893 35.45C16.1045 35.6394 16.3018 35.7342 16.5811 35.7342C16.7471 35.7342 16.8945 35.6853 17.0234 35.5877C17.1523 35.49 17.252 35.3504 17.3223 35.1687C17.3926 34.9851 17.4277 34.7674 17.4277 34.5154ZM18.7754 36.1004V33.6687C18.7754 33.4461 18.7695 33.2 18.7578 32.9305H19.2559C19.2715 33.2898 19.2793 33.5056 19.2793 33.5779H19.291C19.375 33.3064 19.4717 33.1209 19.5811 33.0213C19.6904 32.9217 19.8447 32.8719 20.0439 32.8719C20.1143 32.8719 20.1855 32.8816 20.2578 32.9012V33.3846C20.1875 33.365 20.0938 33.3553 19.9766 33.3553C19.7578 33.3553 19.5908 33.45 19.4756 33.6394C19.3604 33.8269 19.3027 34.0965 19.3027 34.448V36.1004H18.7754ZM21.5703 36.159C21.252 36.159 21.0127 36.075 20.8525 35.907C20.6924 35.739 20.6123 35.5086 20.6123 35.2156C20.6123 34.8875 20.7197 34.6355 20.9346 34.4597C21.1514 34.284 21.5 34.1902 21.9805 34.1785L22.6924 34.1668V33.9939C22.6924 33.7361 22.6377 33.5515 22.5283 33.4402C22.4189 33.3289 22.2471 33.2732 22.0127 33.2732C21.7764 33.2732 21.6045 33.3133 21.4971 33.3933C21.3896 33.4734 21.3252 33.6013 21.3037 33.7771L20.7529 33.7273C20.8428 33.157 21.2666 32.8719 22.0244 32.8719C22.4229 32.8719 22.7227 32.9637 22.9238 33.1472C23.125 33.3289 23.2256 33.5926 23.2256 33.9383V35.3035C23.2256 35.4597 23.2461 35.5779 23.2871 35.658C23.3281 35.7361 23.4062 35.7752 23.5215 35.7752C23.5723 35.7752 23.6299 35.7683 23.6943 35.7547V36.0828C23.5615 36.114 23.4258 36.1297 23.2871 36.1297C23.0918 36.1297 22.9492 36.0789 22.8594 35.9773C22.7715 35.8738 22.7217 35.7127 22.71 35.4939H22.6924C22.5576 35.7361 22.4004 35.908 22.2207 36.0096C22.043 36.1092 21.8262 36.159 21.5703 36.159ZM21.6904 35.7635C21.8838 35.7635 22.0557 35.7195 22.2061 35.6316C22.3564 35.5437 22.4746 35.4236 22.5605 35.2713C22.6484 35.117 22.6924 34.9588 22.6924 34.7967V34.5359L22.1152 34.5476C21.8672 34.5515 21.6787 34.5769 21.5498 34.6238C21.4229 34.6707 21.3252 34.743 21.2568 34.8406C21.1885 34.9383 21.1543 35.0662 21.1543 35.2244C21.1543 35.3963 21.2002 35.5291 21.292 35.6228C21.3857 35.7166 21.5186 35.7635 21.6904 35.7635ZM25.9473 36.1004V34.0906C25.9473 33.784 25.9053 33.5721 25.8213 33.4549C25.7373 33.3377 25.5859 33.2791 25.3672 33.2791C25.1426 33.2791 24.9648 33.365 24.834 33.5369C24.7031 33.7088 24.6377 33.951 24.6377 34.2635V36.1004H24.1133V33.6072C24.1133 33.2381 24.1074 33.0125 24.0957 32.9305H24.5938C24.5957 32.9402 24.5977 32.9666 24.5996 33.0096C24.6016 33.0525 24.6035 33.1023 24.6055 33.159C24.6094 33.2137 24.6133 33.3181 24.6172 33.4724H24.626C24.7393 33.2478 24.8691 33.0916 25.0156 33.0037C25.1621 32.9158 25.3408 32.8719 25.5518 32.8719C25.792 32.8719 25.9814 32.9197 26.1201 33.0154C26.2607 33.1111 26.3584 33.2635 26.4131 33.4724H26.4219C26.5312 33.2596 26.6631 33.1062 26.8174 33.0125C26.9736 32.9187 27.1621 32.8719 27.3828 32.8719C27.7031 32.8719 27.9355 32.9588 28.0801 33.1326C28.2266 33.3064 28.2998 33.5916 28.2998 33.9881V36.1004H27.7783V34.0906C27.7783 33.784 27.7363 33.5721 27.6523 33.4549C27.5684 33.3377 27.417 33.2791 27.1982 33.2791C26.9678 33.2791 26.7881 33.365 26.6592 33.5369C26.5322 33.7068 26.4688 33.949 26.4688 34.2635V36.1004H25.9473Z" fill="white"/>
</svg>
