<svg width="24" height="25" viewBox="0 0 24 25" fill="none" xmlns="http://www.w3.org/2000/svg">
<path d="M18.9672 14.9675C18.4759 14.4559 17.8832 14.1824 17.2551 14.1824C16.6321 14.1824 16.0344 14.4509 15.5228 14.9625L13.9221 16.558C13.7904 16.4871 13.6587 16.4213 13.5321 16.3554C13.3497 16.2643 13.1775 16.1781 13.0306 16.087C11.5312 15.1347 10.1687 13.8937 8.8618 12.2879C8.22863 11.4876 7.80314 10.8139 7.49415 10.1301C7.90951 9.7502 8.29448 9.3551 8.66931 8.97519C8.81114 8.83336 8.95297 8.68647 9.0948 8.54464C10.1585 7.48091 10.1585 6.10313 9.0948 5.03941L7.71196 3.65656C7.55493 3.49954 7.39284 3.33744 7.24088 3.17535C6.93696 2.8613 6.61784 2.53712 6.28859 2.2332C5.79725 1.74692 5.20967 1.48859 4.5917 1.48859C3.97372 1.48859 3.37601 1.74692 2.86947 2.2332C2.86441 2.23826 2.86441 2.23826 2.85934 2.24333L1.13712 3.98075C0.48875 4.62911 0.118979 5.41931 0.0379331 6.33614C-0.0836357 7.81523 0.351986 9.19301 0.6863 10.0946C1.50689 12.3082 2.73271 14.3597 4.5613 16.558C6.77993 19.2072 9.44938 21.2992 12.4987 22.7732C13.6638 23.3254 15.2188 23.9788 16.9562 24.0902C17.0626 24.0953 17.1741 24.1004 17.2754 24.1004C18.4455 24.1004 19.4281 23.68 20.1981 22.8442C20.2031 22.834 20.2133 22.829 20.2183 22.8188C20.4817 22.4997 20.7857 22.211 21.1048 21.902C21.3226 21.6943 21.5455 21.4765 21.7633 21.2486C22.2648 20.7268 22.5282 20.119 22.5282 19.496C22.5282 18.8679 22.2597 18.2651 21.7481 17.7585L18.9672 14.9675ZM20.7806 20.3014C20.7755 20.3014 20.7755 20.3064 20.7806 20.3014C20.583 20.5141 20.3804 20.7066 20.1626 20.9193C19.8334 21.2334 19.4991 21.5626 19.185 21.9324C18.6734 22.4795 18.0706 22.7378 17.2804 22.7378C17.2045 22.7378 17.1234 22.7378 17.0474 22.7327C15.543 22.6365 14.145 22.0489 13.0964 21.5474C10.2294 20.1595 7.71196 18.1891 5.61996 15.6919C3.89268 13.61 2.73777 11.6852 1.9729 9.6185C1.50182 8.35722 1.3296 7.37454 1.40558 6.44758C1.45624 5.85493 1.68418 5.36359 2.1046 4.94317L3.83189 3.21588C4.08009 2.98287 4.34349 2.85623 4.60183 2.85623C4.92094 2.85623 5.17928 3.04872 5.34137 3.21081C5.34643 3.21588 5.3515 3.22094 5.35656 3.22601C5.66555 3.51473 5.95934 3.81359 6.26833 4.13271C6.42536 4.2948 6.58745 4.45689 6.74954 4.62405L8.13239 6.00689C8.66931 6.54382 8.66931 7.04023 8.13239 7.57716C7.98549 7.72405 7.84366 7.87095 7.69676 8.01278C7.27127 8.4484 6.86604 8.85363 6.42536 9.24872C6.41523 9.25886 6.4051 9.26392 6.40003 9.27405C5.96441 9.70967 6.04545 10.1352 6.13663 10.4239C6.1417 10.4391 6.14676 10.4543 6.15183 10.4695C6.51147 11.3407 7.018 12.1613 7.78794 13.1389L7.79301 13.144C9.19105 14.8662 10.6651 16.2085 12.291 17.2368C12.4987 17.3685 12.7115 17.4749 12.9141 17.5762C13.0964 17.6674 13.2687 17.7535 13.4156 17.8446C13.4358 17.8548 13.4561 17.87 13.4763 17.8801C13.6486 17.9662 13.8107 18.0067 13.9778 18.0067C14.3982 18.0067 14.6616 17.7433 14.7478 17.6572L16.4801 15.9249C16.6523 15.7527 16.9259 15.545 17.245 15.545C17.559 15.545 17.8174 15.7425 17.9744 15.9147C17.9795 15.9198 17.9795 15.9198 17.9845 15.9249L20.7755 18.7159C21.2973 19.2326 21.2973 19.7644 20.7806 20.3014Z" fill="white"/>
<path d="M12.9696 5.8093C14.2967 6.03218 15.5023 6.66028 16.4647 7.6227C17.4271 8.58512 18.0502 9.79068 18.2781 11.1178C18.3338 11.4521 18.6226 11.6851 18.9518 11.6851C18.9923 11.6851 19.0278 11.6801 19.0683 11.675C19.4431 11.6142 19.6913 11.2596 19.6306 10.8848C19.357 9.27908 18.5972 7.81518 17.4373 6.65522C16.2773 5.49525 14.8134 4.73544 13.2077 4.46191C12.8328 4.40113 12.4833 4.64933 12.4175 5.0191C12.3516 5.38888 12.5948 5.74852 12.9696 5.8093Z" fill="white"/>
<path d="M23.9718 10.6872C23.521 8.04313 22.2749 5.63708 20.3602 3.72237C18.4455 1.80766 16.0395 0.561584 13.3954 0.110767C13.0256 0.0449173 12.6761 0.298186 12.6102 0.667957C12.5494 1.04279 12.7976 1.3923 13.1725 1.45815C15.5329 1.85832 17.6857 2.97776 19.3978 4.68479C21.1099 6.39688 22.2243 8.54966 22.6244 10.9101C22.6802 11.2444 22.9689 11.4774 23.2981 11.4774C23.3387 11.4774 23.3741 11.4724 23.4146 11.4673C23.7844 11.4116 24.0377 11.057 23.9718 10.6872Z" fill="white"/>
</svg>
