<svg width="29" height="30" viewBox="0 0 29 30" fill="none" xmlns="http://www.w3.org/2000/svg">
<g clip-path="url(#clip0_621_68)">
<path d="M28.5522 2.98105C28.198 2.54784 27.6674 2.30933 27.0581 2.30933C26.7269 2.30933 26.376 2.37902 26.0154 2.51686L1.46739 11.8876C0.164657 12.3847 -0.0107958 13.1308 0.00048802 13.5312C0.0117719 13.9317 0.229263 14.6667 1.55811 15.0895C1.56607 15.092 1.57404 15.0944 1.582 15.0966L6.6739 16.5538L9.42761 24.4282C9.80308 25.5017 10.6458 26.1685 11.6273 26.1685C12.2461 26.1685 12.8548 25.9092 13.3876 25.4189L16.5371 22.519L21.1053 26.1973C21.1058 26.1977 21.1064 26.198 21.1069 26.1984L21.1502 26.2334C21.1542 26.2365 21.1584 26.2398 21.1624 26.2429C21.6702 26.6367 22.2244 26.8447 22.7658 26.8449H22.766C23.8238 26.8449 24.6662 26.0619 24.9115 24.8503L28.9337 4.9898C29.0952 4.19263 28.9598 3.47931 28.5522 2.98105ZM8.37733 16.277L18.2012 11.2583L12.0842 17.7581C11.984 17.8645 11.9129 17.9948 11.878 18.1366L10.6985 22.9143L8.37733 16.277ZM12.2364 24.1688C12.1957 24.2062 12.1548 24.2396 12.1138 24.2704L13.2082 19.8383L15.1988 21.4412L12.2364 24.1688ZM27.2683 4.65239L23.2462 24.5131C23.2074 24.7032 23.0838 25.1455 22.7658 25.1455C22.6087 25.1455 22.4114 25.0598 22.2094 24.9043L17.0329 20.7363C17.0323 20.7357 17.0314 20.735 17.0305 20.7346L13.9505 18.2543L22.7963 8.85486C23.0796 8.55396 23.1052 8.09309 22.8572 7.76254C22.6089 7.43198 22.1591 7.328 21.7912 7.51606L7.24208 14.9488L2.08092 13.4722L26.6214 4.10435C26.8287 4.02514 26.9734 4.00854 27.0581 4.00854C27.1101 4.00854 27.2026 4.01474 27.2369 4.057C27.282 4.11209 27.3395 4.29993 27.2683 4.65239Z" fill="white"/>
</g>
<defs>
<clipPath id="clip0_621_68">
<rect width="29" height="29" fill="white" transform="translate(0 0.100342)"/>
</clipPath>
</defs>
</svg>
