<svg width="30" height="39" viewBox="0 0 30 39" fill="none" xmlns="http://www.w3.org/2000/svg">
<path d="M28.7439 17.851C29.689 10.1578 28.2898 5.3009 25.7659 3.10413L25.7672 3.10285C21.6936 -0.648638 7.93627 -1.20389 3.06273 3.27134C0.874119 5.46045 0.103222 8.67328 0.0187399 12.6507C-0.065742 16.6294 -0.166064 24.0826 7.01621 26.1045H7.02281L7.01621 29.1922C7.01621 29.1922 6.96737 30.4431 7.79371 30.6946C8.73885 30.9907 9.16654 30.41 12.1062 27.0146C17.022 27.4269 20.7973 26.4823 21.2263 26.3445C22.219 26.0228 27.8357 25.3042 28.7439 17.851ZM12.5907 24.8421C12.5907 24.8421 9.47939 28.5936 8.51181 29.5675C8.195 29.8841 7.84783 29.8547 7.85311 29.2267C7.85311 28.8144 7.87687 24.1005 7.87687 24.1005C1.78758 22.413 2.14663 16.0665 2.21263 12.7464C2.27863 9.42511 2.90696 6.70499 4.76028 4.87329C9.03586 0.996707 21.097 1.86342 24.17 4.65629C27.9268 7.87678 26.5896 16.9753 26.5975 17.2855C25.8253 23.5069 21.2738 23.9013 20.4369 24.1707C20.0792 24.2855 16.7593 25.1114 12.5907 24.8421Z" fill="#FAF8FF"/>
<path d="M14.3008 5.60373C13.7871 5.60373 13.7871 6.36359 14.3008 6.36992C18.2865 6.39905 21.569 9.03578 21.605 13.8723C21.605 14.3827 22.3923 14.3764 22.3856 13.866H22.3843C22.3416 8.65458 18.7575 5.63286 14.3008 5.60373Z" fill="#FAF8FF"/>
<path d="M19.5968 13.0742C19.5849 13.5812 20.3602 13.6054 20.3668 13.0921C20.4313 10.2021 18.5898 7.82152 15.1293 7.5706C14.6225 7.53493 14.5699 8.30552 15.0753 8.34118C18.0765 8.56153 19.6573 10.5434 19.5968 13.0742Z" fill="#FAF8FF"/>
<path d="M18.6624 16.4121C18.0133 16.0439 17.3524 16.2731 17.0791 16.6349L16.5075 17.3598C16.2171 17.728 15.6744 17.6791 15.6744 17.6791C11.714 16.6529 10.6549 12.5919 10.6549 12.5919C10.6549 12.5919 10.6063 12.0422 10.969 11.7473L11.6838 11.1679C12.0412 10.8898 12.2672 10.2203 11.9032 9.56231C10.9309 7.84084 10.2778 7.24727 9.94537 6.79147C9.59584 6.36272 9.07024 6.26615 8.52362 6.55585H8.5118C7.37519 7.20736 6.13083 8.42668 6.52897 9.68205C7.20831 11.0057 8.45661 15.225 12.4354 18.413C14.3052 19.9208 17.2643 21.4658 18.5205 21.8225L18.5323 21.8405C19.7701 22.2448 20.9738 20.9778 21.6163 19.8306V19.8216C21.9014 19.2667 21.8068 18.7413 21.3903 18.3976C20.6518 17.692 19.5376 16.913 18.6624 16.4121Z" fill="#FAF8FF"/>
<path d="M15.6828 10.4984C16.9267 10.5693 17.5298 11.205 17.5945 12.5107C17.6178 13.021 18.375 12.9856 18.3517 12.4752C18.2688 10.7706 17.3602 9.82084 15.7243 9.73219C15.2259 9.70307 15.1794 10.4692 15.6828 10.4984Z" fill="#FAF8FF"/>
<path d="M9.29102 37.4503H8.71094L7.02637 33.3224H7.61523L8.75781 36.2287L9.00391 36.9582L9.25 36.2287L10.3867 33.3224H10.9756L9.29102 37.4503ZM11.292 33.6066V33.1027H11.8193V33.6066H11.292ZM11.292 37.4503V34.2804H11.8193V37.4503H11.292ZM15.3115 35.8507C15.3115 36.9562 14.9229 37.5089 14.1455 37.5089C13.9053 37.5089 13.7051 37.466 13.5449 37.38C13.3867 37.2921 13.2578 37.1515 13.1582 36.9582H13.1523C13.1523 37.0187 13.1484 37.1115 13.1406 37.2365C13.1328 37.3595 13.127 37.4308 13.123 37.4503H12.6133C12.625 37.3449 12.6309 37.1271 12.6309 36.797V33.1027H13.1582V34.3419C13.1582 34.4689 13.1543 34.6183 13.1465 34.7902H13.1582C13.2559 34.5871 13.3848 34.4416 13.5449 34.3537C13.707 34.2658 13.9072 34.2218 14.1455 34.2218C14.5459 34.2218 14.8398 34.3566 15.0273 34.6261C15.2168 34.8957 15.3115 35.3039 15.3115 35.8507ZM14.7578 35.8683C14.7578 35.425 14.6992 35.1076 14.582 34.9162C14.4648 34.7248 14.2744 34.6291 14.0107 34.6291C13.7139 34.6291 13.4971 34.7306 13.3604 34.9337C13.2256 35.1369 13.1582 35.4591 13.1582 35.9005C13.1582 36.3166 13.2246 36.6242 13.3574 36.8234C13.4902 37.0207 13.7061 37.1193 14.0049 37.1193C14.2705 37.1193 14.4619 37.0216 14.5791 36.8263C14.6982 36.6291 14.7578 36.3097 14.7578 35.8683ZM16.375 35.9767C16.375 36.34 16.4502 36.6203 16.6006 36.8175C16.751 37.0148 16.9707 37.1134 17.2598 37.1134C17.4883 37.1134 17.6709 37.0675 17.8076 36.9757C17.9463 36.8839 18.04 36.7677 18.0889 36.6271L18.5518 36.7589C18.3623 37.2589 17.9316 37.5089 17.2598 37.5089C16.791 37.5089 16.4336 37.3693 16.1875 37.09C15.9434 36.8107 15.8213 36.3957 15.8213 35.8449C15.8213 35.3214 15.9434 34.9201 16.1875 34.6408C16.4336 34.3615 16.7842 34.2218 17.2393 34.2218C18.1709 34.2218 18.6367 34.7834 18.6367 35.9064V35.9767H16.375ZM18.0918 35.5724C18.0625 35.2384 17.9775 34.9953 17.8369 34.8429C17.6963 34.6886 17.4941 34.6115 17.2305 34.6115C16.9746 34.6115 16.7715 34.6974 16.6211 34.8693C16.4727 35.0392 16.3926 35.2736 16.3809 35.5724H18.0918ZM19.3223 37.4503V35.0187C19.3223 34.7961 19.3164 34.55 19.3047 34.2804H19.8027C19.8184 34.6398 19.8262 34.8556 19.8262 34.9279H19.8379C19.9219 34.6564 20.0186 34.4709 20.1279 34.3712C20.2373 34.2716 20.3916 34.2218 20.5908 34.2218C20.6611 34.2218 20.7324 34.2316 20.8047 34.2511V34.7345C20.7344 34.715 20.6406 34.7052 20.5234 34.7052C20.3047 34.7052 20.1377 34.8 20.0225 34.9894C19.9072 35.1769 19.8496 35.4464 19.8496 35.798V37.4503H19.3223Z" fill="white"/>
</svg>
