<svg width="29" height="37" viewBox="0 0 29 37" fill="none" xmlns="http://www.w3.org/2000/svg">
<path d="M22.426 16.3118L22.414 16.3987C19.4721 15.1295 19.1644 14.9604 18.7844 15.4538C18.5209 15.7954 17.753 16.5701 17.5215 16.7994C17.2874 17.0252 17.0546 17.0425 16.6573 16.8862C16.2559 16.7125 14.9676 16.3477 13.4425 15.1666C12.2545 14.246 11.4571 13.1169 11.2216 12.7695C10.8297 12.1836 11.6498 12.1002 12.3963 10.8773C12.5301 10.6341 12.4618 10.4431 12.3628 10.2705C12.2625 10.0968 11.4638 8.39456 11.1293 7.71597C10.8083 7.0397 10.4778 7.12539 10.2303 7.12539C9.45972 7.06749 8.89649 7.07675 8.40015 7.52374C6.24088 9.57804 6.78538 11.6972 8.63293 13.9507C12.2638 18.0639 14.1983 18.8212 17.7356 19.8727C18.6908 20.1356 19.5617 20.0985 20.2507 20.0128C21.0186 19.9074 22.6147 19.1779 22.9478 18.3615C23.2889 17.5451 23.2889 16.8677 23.1886 16.7114C23.0896 16.555 22.8274 16.4682 22.426 16.3118Z" fill="#FAF8FF"/>
<path d="M24.795 4.26833C15.5041 -4.71305 0.128083 1.80096 0.122042 14.4713C0.122042 17.0039 0.785417 19.4737 2.04933 21.6547L0 29.1003L7.65479 27.1042C17.2067 32.2637 28.9952 25.4126 29 14.4786C29 10.641 27.5017 7.02932 24.7769 4.31545L24.795 4.26833ZM26.5858 14.4387C26.5785 23.6617 16.4539 29.4218 8.44625 24.7142L8.01125 24.4556L3.48 25.6337L4.69438 21.2294L4.40558 20.7763C-0.577583 12.8437 5.1475 2.4764 14.587 2.4764C17.7939 2.4764 20.8039 3.72701 23.0707 5.99259C25.3363 8.23884 26.5858 11.2487 26.5858 14.4387Z" fill="#FAF8FF"/>
<path d="M4.42676 35.1003H3.75879L3.04395 32.4783C2.99707 32.3142 2.92871 32.0203 2.83887 31.5964C2.78809 31.823 2.74512 32.0125 2.70996 32.1648C2.6748 32.3171 2.4082 33.2957 1.91016 35.1003H1.24219L0.0263672 30.9724H0.609375L1.35059 33.5945C1.43848 33.9226 1.51953 34.2605 1.59375 34.6082C1.64062 34.3933 1.69434 34.1589 1.75488 33.905C1.81738 33.6511 2.08887 32.6736 2.56934 30.9724H3.10547L3.82324 33.5417C3.93262 33.9617 4.01855 34.3171 4.08105 34.6082L4.10742 34.5056C4.16016 34.281 4.20312 34.0984 4.23633 33.9578C4.26953 33.8152 4.54395 32.8201 5.05957 30.9724H5.64258L4.42676 35.1003ZM6.59473 32.4724C6.70801 32.2654 6.84375 32.114 7.00195 32.0183C7.16211 31.9207 7.36426 31.8718 7.6084 31.8718C7.95215 31.8718 8.20508 31.9578 8.36719 32.1296C8.53125 32.2996 8.61328 32.5857 8.61328 32.988V35.1003H8.08301V33.0906C8.08301 32.8679 8.0625 32.7029 8.02148 32.5955C7.98047 32.4861 7.91309 32.406 7.81934 32.3552C7.72559 32.3044 7.5957 32.2791 7.42969 32.2791C7.18164 32.2791 6.98242 32.365 6.83203 32.5369C6.68359 32.7087 6.60938 32.9402 6.60938 33.2312V35.1003H6.08203V30.7527H6.60938V31.8835C6.60938 32.0027 6.60547 32.1257 6.59766 32.2527C6.5918 32.3796 6.58789 32.4529 6.58594 32.4724H6.59473ZM10.2188 35.1589C9.90039 35.1589 9.66113 35.075 9.50098 34.907C9.34082 34.739 9.26074 34.5085 9.26074 34.2156C9.26074 33.8875 9.36816 33.6355 9.58301 33.4597C9.7998 33.2839 10.1484 33.1902 10.6289 33.1785L11.3408 33.1667V32.9939C11.3408 32.7361 11.2861 32.5515 11.1768 32.4402C11.0674 32.3289 10.8955 32.2732 10.6611 32.2732C10.4248 32.2732 10.2529 32.3132 10.1455 32.3933C10.0381 32.4734 9.97363 32.6013 9.95215 32.7771L9.40137 32.7273C9.49121 32.157 9.91504 31.8718 10.6729 31.8718C11.0713 31.8718 11.3711 31.9636 11.5723 32.1472C11.7734 32.3289 11.874 32.5925 11.874 32.9382V34.3035C11.874 34.4597 11.8945 34.5779 11.9355 34.658C11.9766 34.7361 12.0547 34.7751 12.1699 34.7751C12.2207 34.7751 12.2783 34.7683 12.3428 34.7546V35.0828C12.21 35.114 12.0742 35.1296 11.9355 35.1296C11.7402 35.1296 11.5977 35.0789 11.5078 34.9773C11.4199 34.8738 11.3701 34.7126 11.3584 34.4939H11.3408C11.2061 34.7361 11.0488 34.908 10.8691 35.0095C10.6914 35.1091 10.4746 35.1589 10.2188 35.1589ZM10.3389 34.7634C10.5322 34.7634 10.7041 34.7195 10.8545 34.6316C11.0049 34.5437 11.123 34.4236 11.209 34.2712C11.2969 34.1169 11.3408 33.9587 11.3408 33.7966V33.5359L10.7637 33.5476C10.5156 33.5515 10.3271 33.5769 10.1982 33.6238C10.0713 33.6707 9.97363 33.7429 9.90527 33.8406C9.83691 33.9382 9.80273 34.0662 9.80273 34.2244C9.80273 34.3962 9.84863 34.5291 9.94043 34.6228C10.0342 34.7166 10.167 34.7634 10.3389 34.7634ZM13.9688 35.0769C13.7949 35.1238 13.6172 35.1472 13.4355 35.1472C13.0137 35.1472 12.8027 34.908 12.8027 34.4294V32.3142H12.4365V31.9304H12.8232L12.9785 31.2214H13.3301V31.9304H13.916V32.3142H13.3301V34.3152C13.3301 34.4675 13.3545 34.575 13.4033 34.6375C13.4541 34.698 13.541 34.7283 13.6641 34.7283C13.7344 34.7283 13.8359 34.7146 13.9688 34.6873V35.0769ZM16.7988 34.2244C16.7988 34.5232 16.6855 34.7537 16.459 34.9158C16.2344 35.0779 15.9189 35.1589 15.5127 35.1589C15.1182 35.1589 14.8135 35.0945 14.5986 34.9656C14.3857 34.8347 14.2471 34.6316 14.1826 34.3562L14.6484 34.2654C14.6934 34.4353 14.7861 34.5603 14.9268 34.6404C15.0674 34.7185 15.2627 34.7576 15.5127 34.7576C15.7803 34.7576 15.9756 34.7166 16.0986 34.6345C16.2236 34.5525 16.2861 34.4294 16.2861 34.2654C16.2861 34.1404 16.2432 34.0388 16.1572 33.9607C16.0713 33.8826 15.9326 33.8181 15.7412 33.7673L15.3633 33.6677C15.0605 33.5896 14.8447 33.5134 14.7158 33.4392C14.5889 33.363 14.4893 33.2712 14.417 33.1638C14.3447 33.0564 14.3086 32.9246 14.3086 32.7683C14.3086 32.4792 14.4111 32.2595 14.6162 32.1091C14.8232 31.9568 15.124 31.8806 15.5186 31.8806C15.8682 31.8806 16.1455 31.9421 16.3506 32.0652C16.5576 32.1882 16.6885 32.3855 16.7432 32.657L16.2686 32.7156C16.2393 32.575 16.1602 32.4675 16.0312 32.3933C15.9043 32.3171 15.7334 32.2791 15.5186 32.2791C15.2803 32.2791 15.1045 32.3152 14.9912 32.3875C14.8779 32.4597 14.8213 32.5691 14.8213 32.7156C14.8213 32.8054 14.8447 32.8796 14.8916 32.9382C14.9385 32.9968 15.0078 33.0466 15.0996 33.0876C15.1914 33.1287 15.3848 33.1853 15.6797 33.2576C15.959 33.3279 16.1602 33.3933 16.2832 33.4539C16.4062 33.5125 16.5029 33.5779 16.5732 33.6501C16.6455 33.7224 16.7012 33.8064 16.7402 33.9021C16.7793 33.9958 16.7988 34.1033 16.7988 34.2244ZM20.4346 35.1003L19.9629 33.8933H18.082L17.6074 35.1003H17.0273L18.7119 30.9724H19.3477L21.0059 35.1003H20.4346ZM19.0225 31.3943L18.9961 31.4763C18.9473 31.6384 18.875 31.8464 18.7793 32.1003L18.252 33.4568H19.7959L19.2656 32.0945C19.2109 31.9597 19.1562 31.8074 19.1016 31.6375L19.0225 31.3943ZM24.1025 33.5007C24.1025 34.6062 23.7139 35.1589 22.9365 35.1589C22.4482 35.1589 22.1201 34.9753 21.9521 34.6082H21.9375C21.9453 34.6238 21.9492 34.7898 21.9492 35.1062V36.3455H21.4219V32.5779C21.4219 32.2517 21.416 32.0359 21.4043 31.9304H21.9141C21.916 31.9382 21.9189 31.9666 21.9229 32.0154C21.9268 32.0623 21.9307 32.1355 21.9346 32.2351C21.9404 32.3347 21.9434 32.4031 21.9434 32.4402H21.9551C22.0488 32.2449 22.1729 32.1023 22.3271 32.0125C22.4814 31.9207 22.6846 31.8748 22.9365 31.8748C23.3271 31.8748 23.6191 32.0056 23.8125 32.2673C24.0059 32.5291 24.1025 32.9402 24.1025 33.5007ZM23.5488 33.5125C23.5488 33.071 23.4893 32.7556 23.3701 32.5662C23.251 32.3767 23.0615 32.282 22.8018 32.282C22.5928 32.282 22.4287 32.3259 22.3096 32.4138C22.1924 32.5017 22.1025 32.6394 22.04 32.8269C21.9795 33.0125 21.9492 33.2546 21.9492 33.5535C21.9492 33.9695 22.0156 34.2761 22.1484 34.4734C22.2812 34.6707 22.4971 34.7693 22.7959 34.7693C23.0576 34.7693 23.248 34.6736 23.3672 34.4822C23.4883 34.2888 23.5488 33.9656 23.5488 33.5125ZM27.4424 33.5007C27.4424 34.6062 27.0537 35.1589 26.2764 35.1589C25.7881 35.1589 25.46 34.9753 25.292 34.6082H25.2773C25.2852 34.6238 25.2891 34.7898 25.2891 35.1062V36.3455H24.7617V32.5779C24.7617 32.2517 24.7559 32.0359 24.7441 31.9304H25.2539C25.2559 31.9382 25.2588 31.9666 25.2627 32.0154C25.2666 32.0623 25.2705 32.1355 25.2744 32.2351C25.2803 32.3347 25.2832 32.4031 25.2832 32.4402H25.2949C25.3887 32.2449 25.5127 32.1023 25.667 32.0125C25.8213 31.9207 26.0244 31.8748 26.2764 31.8748C26.667 31.8748 26.959 32.0056 27.1523 32.2673C27.3457 32.5291 27.4424 32.9402 27.4424 33.5007ZM26.8887 33.5125C26.8887 33.071 26.8291 32.7556 26.71 32.5662C26.5908 32.3767 26.4014 32.282 26.1416 32.282C25.9326 32.282 25.7686 32.3259 25.6494 32.4138C25.5322 32.5017 25.4424 32.6394 25.3799 32.8269C25.3193 33.0125 25.2891 33.2546 25.2891 33.5535C25.2891 33.9695 25.3555 34.2761 25.4883 34.4734C25.6211 34.6707 25.8369 34.7693 26.1357 34.7693C26.3975 34.7693 26.5879 34.6736 26.707 34.4822C26.8281 34.2888 26.8887 33.9656 26.8887 33.5125Z" fill="white"/>
</svg>
